<?xml version="1.0" encoding="UTF-8" standalone="no"?>
<!-- Generator: Adobe Illustrator 24.0.1, SVG Export Plug-In . SVG Version: 6.00 Build 0)  -->
<svg id="Layer_1" style="enable-background:new 0 0 1922.2 1500" xmlns="http://www.w3.org/2000/svg" xml:space="preserve" viewBox="0 0 1922.2 1500" version="1.1" y="0px" x="0px" xmlns:xlink="http://www.w3.org/1999/xlink">
<style type="text/css">
	.st0{fill:#E95420;}
	.st1{fill:url(#SVGID_1_);}
</style>
<title>Artboard 1 copy 2</title>
	<path class="st0" d="m1214.2 443.2l-76.9-3.8-59.3 49.3-3.5 26.4-7 70.4 36.6-33.4h75l66.3-66.9 37.6-38.9-68.8-3.1zm-77.2 94.8s-10.8-16.6-10.8-41.2c0-24.7 13.1-41.4 13.1-41.4s12.4 17.9 12.4 42.1c0 24.6-14.7 40.5-14.7 40.5z"/>
	<path class="st0" d="m760.2 484.3c0-18 4.6-26.1 9.4-32.7 9 13.6 9 39.4 9 39.4l18.6-34-41.4-45.8-24.3 73.4 16.9 64.5 18.4-34.7c-0.8-3.4-6.6-18.7-6.6-30.1z"/>
	<path class="st0" d="m511.5 595.2c-0.3-1.9 0.9-3.6 2.8-3.9 1.8-0.3 3.5 0.9 3.9 2.8 0.3 1.8-0.9 3.6-2.7 3.9h-0.6c-1.7-0.1-3.1-1.2-3.4-2.8zm26.8-4.7c-0.3-1.8 0.9-3.6 2.7-3.9s3.5 0.9 3.9 2.8c0.3 1.8-0.9 3.6-2.7 3.9-0.2 0.1-0.4 0.1-0.6 0.1-1.7 0-3.1-1.2-3.3-2.9zm26.7-4.5c-0.3-1.8 0.9-3.6 2.7-3.9s3.5 0.9 3.9 2.8c0.3 1.8-0.9 3.6-2.7 3.9-0.2 0-0.4 0.1-0.6 0.1-1.6-0.1-3-1.3-3.3-2.9zm26.8-4.6c-0.3-1.8 0.9-3.6 2.7-3.9s3.5 0.9 3.9 2.8c0.3 1.8-0.9 3.6-2.7 3.9-0.2 0-0.4 0.1-0.6 0.1-1.7-0.1-3-1.3-3.3-2.9zm26.8-4.7c-0.3-1.8 0.9-3.6 2.7-3.9s3.5 0.9 3.9 2.8c0.3 1.8-0.9 3.6-2.7 3.9-0.2 0.1-0.4 0.1-0.6 0.1-1.7-0.1-3.1-1.2-3.3-2.9zm26.7-4.6c-0.3-1.8 0.9-3.6 2.7-3.9s3.5 0.9 3.9 2.8c0.3 1.8-0.9 3.6-2.7 3.9-0.2 0.1-0.4 0.1-0.6 0.1-1.6-0.1-3-1.2-3.3-2.9zm26.8-4.6c-0.3-1.8 0.9-3.6 2.7-3.9s3.5 1 3.9 2.8c0.3 1.9-0.9 3.6-2.7 3.9-0.2 0-0.4 0.1-0.6 0.1-1.7-0.1-3.1-1.2-3.3-2.9zm26.7-4.6c-0.3-1.8 0.9-3.6 2.7-3.9s3.5 0.9 3.9 2.8c0.3 1.8-0.9 3.6-2.7 3.9-0.2 0.1-0.4 0.1-0.5 0.1-1.7-0.1-3.1-1.2-3.4-2.9zm26.8-4.6c-0.3-1.8 0.9-3.6 2.7-3.9s3.6 0.9 3.9 2.8c0.3 1.8-0.9 3.6-2.7 3.9-0.2 0.1-0.4 0.1-0.5 0.1-1.7-0.1-3.2-1.3-3.4-2.9zm26.7-4.6c-0.3-1.8 0.9-3.6 2.7-3.9s3.6 0.9 3.9 2.8c0.3 1.8-0.9 3.6-2.7 3.9-0.2 0-0.4 0.1-0.5 0.1-1.6-0.1-3.1-1.3-3.4-2.9zm26.8-4.6c-0.3-1.8 0.9-3.6 2.7-3.9s3.6 0.9 3.9 2.8c0.3 1.8-0.9 3.6-2.7 3.9-0.2 0.1-0.4 0.1-0.5 0.1-1.7-0.1-3.1-1.3-3.4-2.9zm26.8-4.6c-0.3-1.8 0.9-3.6 2.7-3.9s3.6 0.9 3.9 2.8c0.3 1.8-1 3.6-2.7 3.9-0.2 0.1-0.4 0.1-0.6 0.1-1.6-0.1-3.1-1.3-3.3-2.9zm26.7-4.6c-0.3-1.8 0.9-3.6 2.7-3.9 1.9-0.3 3.6 0.9 3.9 2.8 0.3 1.8-0.9 3.6-2.7 3.9-0.2 0-0.4 0.1-0.6 0.1-1.6-0.1-3-1.3-3.3-2.9zm26.8-4.7c-0.3-1.8 0.9-3.6 2.7-3.9s3.5 0.9 3.9 2.8c0.3 1.9-0.9 3.6-2.8 3.9-0.2 0-0.4 0.1-0.5 0.1-1.6 0-3-1.2-3.3-2.9zm26.8-4.6c-0.3-1.8 0.9-3.6 2.7-3.9s3.5 0.9 3.9 2.8c0.3 1.8-0.9 3.6-2.7 3.9-0.2 0.1-0.4 0.1-0.6 0.1-1.7-0.1-3.1-1.2-3.3-2.9zm26.7-4.6c-0.3-1.8 0.9-3.6 2.7-3.9s3.5 0.9 3.9 2.8c0.3 1.8-0.9 3.6-2.7 3.9-0.2 0.1-0.4 0.1-0.6 0.1-1.6-0.1-3-1.2-3.3-2.9zm26.8-4.6c-0.3-1.9 0.9-3.6 2.7-3.9s3.5 1 3.9 2.8c0.3 1.8-0.9 3.6-2.7 3.9h-0.6c-1.6 0-3-1.1-3.3-2.8zm26.7-4.6c-0.3-1.8 0.9-3.6 2.7-3.9s3.5 0.9 3.9 2.8c0.3 1.8-0.9 3.6-2.7 3.9-0.2 0.1-0.4 0.1-0.6 0.1-1.5-0.1-3-1.2-3.3-2.9zm26.8-4.6c-0.3-1.8 0.9-3.6 2.7-3.9s3.5 0.9 3.9 2.8c0.3 1.8-0.9 3.6-2.7 3.9-0.2 0-0.4 0.1-0.6 0.1-1.6-0.1-3-1.3-3.3-2.9zm26.8-4.6c-0.3-1.8 0.9-3.6 2.7-3.9s3.5 0.9 3.9 2.8c0.3 1.8-0.9 3.6-2.7 3.9-0.2 0-0.4 0.1-0.5 0.1-1.7-0.1-3.2-1.3-3.4-2.9zm26.7-4.6c-0.3-1.8 0.9-3.6 2.7-3.9s3.5 0.9 3.9 2.8c0.3 1.8-0.9 3.6-2.7 3.9-0.2 0.1-0.4 0.1-0.5 0.1-1.7-0.1-3.1-1.3-3.4-2.9z"/>
	<path class="st0" d="m295.2 560.7c-0.4-1.8 0.8-3.6 2.6-4s3.6 0.9 3.9 2.6c0.4 1.8-0.8 3.6-2.6 4-0.2 0.1-0.4 0.1-0.6 0.1-1.6 0-3-1.2-3.3-2.7zm26.6-5.3c-0.3-1.9 0.9-3.6 2.7-4s3.5 0.8 3.9 2.6-0.8 3.6-2.6 4c-0.2 0-0.4 0.1-0.6 0.1-1.7 0-3.1-1.2-3.4-2.7zm26.7-5.4c-0.3-1.8 0.9-3.6 2.6-3.9 1.8-0.4 3.6 0.8 4 2.6 0.3 1.8-0.9 3.6-2.7 3.9-0.2 0.1-0.4 0.1-0.6 0.1-1.6 0.1-3-1.1-3.3-2.7zm26.6-5.3c-0.4-1.8 0.8-3.6 2.6-3.9 1.8-0.4 3.6 0.8 3.9 2.6 0.4 1.8-0.8 3.6-2.6 3.9-0.2 0.1-0.4 0.1-0.6 0.1-1.6 0-3-1-3.3-2.7zm26.7-5.3c-0.4-1.8 0.8-3.6 2.6-4 1.8-0.3 3.5 0.9 3.9 2.7s-0.8 3.6-2.6 3.9c-0.2 0.1-0.4 0.1-0.6 0.1-1.6 0-3-1-3.3-2.7zm26.6-5.3c-0.3-1.8 0.9-3.6 2.7-4 1.8-0.3 3.5 0.9 3.9 2.7s-0.8 3.6-2.6 3.9c-0.2 0.1-0.4 0.1-0.6 0.1-1.7 0-3.1-1-3.4-2.7zm26.6-5.3c-0.4-1.8 0.8-3.6 2.6-3.9 1.8-0.4 3.6 0.9 4 2.6 0.3 1.8-0.9 3.6-2.7 4-0.2 0.1-0.4 0.1-0.6 0.1-1.6-0.1-3-1.2-3.3-2.8zm26.7-5.3c-0.4-1.8 0.8-3.6 2.6-3.9 1.8-0.4 3.6 0.8 3.9 2.6 0.4 1.8-0.8 3.6-2.6 4-0.2 0-0.4 0.1-0.6 0.1-1.6 0-3-1.2-3.3-2.8zm26.6-5.3c-0.3-1.8 0.9-3.6 2.7-3.9 1.8-0.4 3.5 0.8 3.9 2.6s-0.8 3.6-2.6 3.9c-0.2 0.1-0.4 0.1-0.6 0.1-1.7 0.1-3.1-1.1-3.4-2.7zm26.6-5.3c-0.4-1.8 0.8-3.6 2.6-3.9 1.8-0.4 3.6 0.8 4 2.6s-0.9 3.6-2.6 3.9c-0.2 0.1-0.5 0.1-0.6 0.1-1.7 0-3.1-1.1-3.4-2.7zm26.7-5.3c-0.4-1.8 0.8-3.6 2.6-4 1.8-0.3 3.6 0.9 4 2.7 0.3 1.8-0.9 3.6-2.7 3.9-0.2 0.1-0.4 0.1-0.6 0.1-1.6 0-3-1.1-3.3-2.7zm26.6-5.3c-0.4-1.8 0.8-3.6 2.6-4 1.8-0.3 3.6 0.9 3.9 2.7 0.4 1.8-0.8 3.6-2.6 3.9-0.2 0.1-0.4 0.1-0.6 0.1-1.6 0-3-1.1-3.3-2.7zm26.6-5.3c-0.3-1.8 0.9-3.6 2.6-4 1.8-0.4 3.6 0.8 4 2.6s-0.8 3.6-2.6 4c-0.2 0.1-0.4 0.1-0.6 0.1-1.7 0-3.1-1.1-3.4-2.7zm26.7-5.3c-0.4-1.8 0.8-3.6 2.6-3.9 1.8-0.4 3.6 0.8 4 2.6 0.3 1.8-0.9 3.6-2.7 4-0.2 0-0.4 0.1-0.6 0.1-1.6-0.1-3-1.2-3.3-2.8zm26.6-5.3c-0.4-1.8 0.8-3.6 2.6-3.9 1.8-0.4 3.6 0.8 3.9 2.6 0.4 1.8-0.8 3.6-2.6 4-0.2 0-0.4 0.1-0.6 0.1-1.6-0.1-3-1.2-3.3-2.8z"/>
<linearGradient id="SVGID_1_" y2="276.5" gradientUnits="userSpaceOnUse" x2="1859.9" y1="1129.2" x1="383.07">
	<stop stop-color="#2C001E" offset="0"/>
	<stop stop-color="#772953" offset=".55"/>
	<stop stop-color="#E95420" offset="1"/>
</linearGradient>
<path class="st1" d="m1652.8 624.3l150.2-25 2-0.3-1.6-9.3-160.1 26.7-56.1-47.3 91.5-223 5.2-94.4 57.2-180.8-129.2-33.9-110.6 56.3-113.3 108.8-66.3-32.6-193.6-24.3-167.2 42.9-148.7-170.6-75 50.8-3.9 162.9 23.7 56-78.8 243.6 17.1 97.2-41.7 43.1 0.3 44.1 8.7 13.9-640.1-241.6-1.9-0.7-3.3 8.9 653.8 246.6 2.7 4.3-9.1 18.6-489.3-55.9-2-0.2-1.1 9.4 488 55.8-11.3 22.8-335.5 37.4 1 9.4 329.5-36.7-8.5 17.3 1.8 5.4-182.9 76.2 3.6 8.7 182.3-75.9 10.5 31.8-145.9 105.9 5.5 7.7 143.5-104.2 13.6 41.1 28.9 7.4 69.5 85 141.5 18.2 27.3-15.9 0.8 71.6 9.4-0.1-0.8-76.9 52.6-30.7h0.2l5.9 52.2 0.2 2.1 10-1.6-6-50.5 86.9 19 48 181.5 12.5 301 171.9-35.1 325.2-211.8 0.8-0.5 185.1-222.5 76-178.3-216.2-173.5-44.4-37.5zm-549.1 366.5l-98.2-21.5-0.2-1.6 94.5-30.5 70.9 73.2 6.7-6.6-67.5-69.8 184.2-59.5 93 34.7-234.9 265.4-48.5-183.8zm-331.5 11.4l-66.2-81 29.6 5.7 1.7 0.3 8.8-19.6 83.5 10.3 13.5 15.6 0.6 0.7 90.2-10.1 0.8 77.9-29.7 17.3-132.8-17.1zm-95.3-91.1l-28.3-85.6 21.1-42.9 30.6 51 0.7-0.4-0.1 0.2 42.2 9.8 25.5 5.9-33.4 74.2-41-7.9 0.1 0.1-1.9-0.4-15.5-4zm59.9-521.9l58.9 68.6-83.6 155h0.1l-5.8 7.5-15.6-88.7 46-142.4zm107.6-159.9l-34-66.9 3.2-125 137.8 158.1-107 33.8zm-74.6 58l73.9-54 110.3-34.8 0.9 1-132 110.1-0.5 0.4-25.3 144.1-59-68.8 31.7-98zm624 614.3l-85.2-31.8 57.6-18.6 79.6-62.5-50.2 110.9-1.8 2zm-546.4-168.9l8.4 14.7 49.7-23.2 25.5-52.6 127.9-22.1-65.6 108.5-55.4-1.7-92.3 72.1-40.1-76.8 41.9-18.9zm233-243.8l57.4-47.7 144.1 5.3h0.7l84.3-83.7 0.2 0.1 83-157.3 13.3 77.5 11.1 63.6 10.5 65.1 0.1 0.1-19.8 234.1-344.8 57.5-56.4-57 16.3-157.6zm-38.2 281.6l-3.2 8.9 48 17.9-18.3 47.2-72.3-84.8 66.2-109.7 53.7 54.2-65.8 11-2 0.3 1.6 9.3 69.7-11.6-14.5 37.3-57.4-4.8-1.1 9.4 55 4.6-11.2 28.8-48.4-18zm397.2 8l-299.3-68.8 400.6-66.8-89.7 136.6-11.6-1zm-308.4-67.2l283.7 65.2-305.9-25.7 14.9-38.3 7.3-1.2zm-356.3 137.9l56.4-5 0.6-0.5 15.6-12.1v-0.1l91.8-71.8 54.4 1.7 73.2 85.9-21.6 19.6-32.5-33.6-6.7 6.6 32.2 33.2-39.7 36-6-50.3-9.1 1.6 6.1 53.6-46.4 5.2-0.6-52.1-9.4 0.1 0.6 53-88.7 9.9-70.2-80.9zm224.3 64.5l41.6-37.8 56.6 58.5-92.2 29.8-6-50.5zm48.5-44.1l23.3-21.1 19.4-50 198.5 74-181.7 58.7-59.5-61.6zm317.3-21.6l-61.5 19.9-209.6-78.2 11.5-29.7 335.6 28.2-76 59.8zm330.3-38.5l1.2-9.4-241.3-20.3 90.4-137.6 91.7-15.3 52.6 44.3 5.6 4.5 133.4 328.3-1 2.4-181 217.6-190.8-434.7 239.2 20.2zm-144.2-177.8l24.4-56.8 52.2 44-76.6 12.8zm-4 0.7l-78 13 19.6-232.3 175.5-63-87.7 213.6-29.4 68.7zm-56.6-511.8l-40.7 78.2-0.1 0.4v0.1l-80.5 152.5 21.6-135.4 99.7-95.8zm-172 60.7l69 34-23.3 145.5-82.7 82.2-142.9-5.2-48.4-123.8 224.6-133.2 3.7 0.5zm-231 135.3l47.9 122.3-57.7 48h-0.3v0.3l-0.3 0.2 0.2 0.3-16.4 158-129.3 22.3-1.6-34.7 37.6-180.6 119.9-136.1zm-161 317.3l1.7 35.7-25.1 51.8-45.7 21.4-22.1-38.7-47.3 21.4 54.9 105.1-13.1 10.2-57.1 5.1-18.9-176 140.7-61.6 32 25.6zm-174.1 32.9l-43.8-35-1.2-6.9 7.6-10 53.4-34.8h91.3l32 25.6-139.3 61.1zm-46.2-32.4l44.2 35.3 18.8 175.8-23.9-5.6-39.9-9.3 30.6-104.4 0.4-1.4-19.5-10.7-23.6-12.9-1.9-1-10.3 35-14.8-23.6-0.3-35.7 40.2-41.5zm-22.3 105.3l3.3-11.8 36.6 27.6-21.1 72.1-31-49.1 16.1-32.7-3.9-6.1zm259.5 183.3l46.7-5.2 5.6 49.3-0.8-0.2-50.8 29.6-0.7-73.5zm454.1-20.1l1-1.1 48.9-107.9-23 119.1-26.9-10.1zm433.3 96.7l-129.8-319.3 197.9 158.8-68.1 160.5zm-701.7-842.1l180 22.6-221.9 131.6-122.5 138.9-0.3 0.3-37.3 179-66.3-53.2h-93.5l-48.7 31.8 81.6-151.2 25.6-145.4 132.3-110.5 171-43.9zm192.9 1279.5l-155.9 31.8-11.9-287.4-0.7-2.8 237.3-268.1 31.8 11.9-99.1 513.7-1.5 0.9zm104-513.4l24.3 9 1.9 0.7 3.2-8.9-27.6-10.3 24.1-125.1 192.5 437.9-316.8 206.3 98.4-509.6z"/>
</svg>
